<svg xmlns="http://www.w3.org/2000/svg" width="1560" height="1040" viewBox="0 0 1560 1040" font-family="Arial, Helvetica, sans-serif" fill="#333333">
<defs><filter id="bayang" x="-20%" y="-20%" width="150%" height="150%"><feDropShadow dx="3" dy="4" stdDeviation="3" flood-color="#000" flood-opacity="0.22"/></filter><radialGradient id="bola" cx="38%" cy="32%" r="75%"><stop offset="0" stop-color="#FFFFFF"/><stop offset="1" stop-color="#E4E4E4"/></radialGradient><linearGradient id="kotak" x1="0" y1="0" x2="0" y2="1"><stop offset="0" stop-color="#FFFFFF"/><stop offset="1" stop-color="#E9E9E9"/></linearGradient><marker id="panah" viewBox="0 0 10 10" refX="9.5" refY="5" markerWidth="8" markerHeight="8" orient="auto"><path d="M0,0 L10,5 L0,10 z" fill="#555555"/></marker></defs>
<rect width="1560" height="1040" fill="#FFFFFF"/>
<text x="780.0" y="44" font-size="26" font-weight="bold" text-anchor="middle">DFD Level 2 — Proses 2.0 Terima &amp; Lacak Laporan</text>
<text x="780.0" y="70" font-size="14" fill="#666" text-anchor="middle">Notasi Yourdon/DeMarco · lingkaran putus-putus = proses lain di Level 1 · garis tegak ganda / garis miring = salinan simbol</text>
<polyline points="225.4,508.0 560.3,227.6" fill="none" stroke="#555555" stroke-width="1.4" marker-end="url(#panah)"/>
<polyline points="546.2,210.7 191.1,508.0" fill="none" stroke="#555555" stroke-width="1.4" marker-end="url(#panah)"/>
<polyline points="886.6,180.0 662.0,180.0" fill="none" stroke="#555555" stroke-width="1.4" marker-end="url(#panah)"/>
<polyline points="245.0,519.1 540.3,436.7" fill="none" stroke="#555555" stroke-width="1.4" marker-end="url(#panah)"/>
<polyline points="662.0,420.0 925.0,420.0" fill="none" stroke="#555555" stroke-width="1.4" marker-end="url(#panah)"/>
<polyline points="600.0,482.0 600.0,598.0" fill="none" stroke="#555555" stroke-width="1.4" marker-end="url(#panah)"/>
<polyline points="243.7,572.0 538.3,654.2" fill="none" stroke="#555555" stroke-width="1.4" marker-end="url(#panah)"/>
<polyline points="544.2,633.0 245.0,549.5" fill="none" stroke="#555555" stroke-width="1.4" marker-end="url(#panah)"/>
<polyline points="927.6,582.0 660.3,645.6" fill="none" stroke="#555555" stroke-width="1.4" marker-end="url(#panah)"/>
<polyline points="923.0,649.0 661.0,649.0" fill="none" stroke="#555555" stroke-width="1.4" marker-end="url(#panah)"/>
<polyline points="661.0,671.0 923.0,671.0" fill="none" stroke="#555555" stroke-width="1.4" marker-end="url(#panah)"/>
<polyline points="660.0,675.7 936.0,748.0" fill="none" stroke="#555555" stroke-width="1.4" marker-end="url(#panah)"/>
<polyline points="643.8,616.2 760.0,500.0 1250.0,500.0 1346.1,461.5" fill="none" stroke="#555555" stroke-width="1.4" marker-end="url(#panah)"/>
<polyline points="191.1,572.0 546.2,869.3" fill="none" stroke="#555555" stroke-width="1.4" marker-end="url(#panah)"/>
<polyline points="560.3,852.4 225.4,572.0" fill="none" stroke="#555555" stroke-width="1.4" marker-end="url(#panah)"/>
<polyline points="923.0,900.0 662.0,900.0" fill="none" stroke="#555555" stroke-width="1.4" marker-end="url(#panah)"/>
<rect x="95.0" y="508.0" width="150.0" height="64" fill="url(#kotak)" stroke="#333333" stroke-width="1.5" filter="url(#bayang)"/>
<text x="170.0" y="534.9" font-size="15" text-anchor="middle">Mahasiswa</text>
<text x="170.0" y="554.1" font-size="15" text-anchor="middle">(Pelapor)</text>
<circle cx="600" cy="180" r="62" fill="url(#bola)" stroke="#333333" stroke-width="1.5" filter="url(#bayang)"/>
<text x="600" y="167.6" font-size="13.5" text-anchor="middle" font-weight="bold">2.1</text>
<text x="600" y="184.5" font-size="13.5" text-anchor="middle">Tampilkan</text>
<text x="600" y="201.4" font-size="13.5" text-anchor="middle">Pilihan Toilet</text>
<circle cx="600" cy="420" r="62" fill="url(#bola)" stroke="#333333" stroke-width="1.5" filter="url(#bayang)"/>
<text x="600" y="407.6" font-size="13.5" text-anchor="middle" font-weight="bold">2.2</text>
<text x="600" y="424.5" font-size="13.5" text-anchor="middle">Terima</text>
<text x="600" y="441.4" font-size="13.5" text-anchor="middle">Foto Kondisi</text>
<circle cx="600" cy="660" r="62" fill="url(#bola)" stroke="#333333" stroke-width="1.5" filter="url(#bayang)"/>
<text x="600" y="647.6" font-size="13.5" text-anchor="middle" font-weight="bold">2.3</text>
<text x="600" y="664.5" font-size="13.5" text-anchor="middle">Validasi &amp;</text>
<text x="600" y="681.4" font-size="13.5" text-anchor="middle">Simpan Laporan</text>
<circle cx="600" cy="900" r="62" fill="url(#bola)" stroke="#333333" stroke-width="1.5" filter="url(#bayang)"/>
<text x="600" y="887.6" font-size="13.5" text-anchor="middle" font-weight="bold">2.4</text>
<text x="600" y="904.5" font-size="13.5" text-anchor="middle">Lacak Status</text>
<text x="600" y="921.4" font-size="13.5" text-anchor="middle">Laporan</text>
<g filter="url(#bayang)"><rect x="886.6" y="158.0" width="266.8" height="44" fill="url(#kotak)"/></g>
<path d="M1153.4,158.0 H886.6 V202.0 H1153.4" fill="none" stroke="#333333" stroke-width="1.5"/>
<line x1="932.6" y1="158.0" x2="932.6" y2="202.0" stroke="#333333" stroke-width="1.5"/>
<text x="909.6" y="185.0" font-size="14" font-weight="bold" text-anchor="middle">D2</text>
<text x="942.6" y="185.0" font-size="13.5">Lokasi (buildings, toilets)</text>
<g filter="url(#bayang)"><rect x="925.0" y="398.0" width="190.0" height="44" fill="url(#kotak)"/></g>
<path d="M1115.0,398.0 H925.0 V442.0 H1115.0" fill="none" stroke="#333333" stroke-width="1.5"/>
<line x1="971.0" y1="398.0" x2="971.0" y2="442.0" stroke="#333333" stroke-width="1.5"/>
<text x="948.0" y="425.0" font-size="14" font-weight="bold" text-anchor="middle">D7</text>
<text x="981.0" y="425.0" font-size="13.5">Foto (R2 bucket)</text>
<g filter="url(#bayang)"><rect x="886.6" y="538.0" width="266.8" height="44" fill="url(#kotak)"/></g>
<path d="M1153.4,538.0 H886.6 V582.0 H1153.4" fill="none" stroke="#333333" stroke-width="1.5"/>
<line x1="932.6" y1="538.0" x2="932.6" y2="582.0" stroke="#333333" stroke-width="1.5"/>
<line x1="893.6" y1="538.0" x2="893.6" y2="582.0" stroke="#333333" stroke-width="1.5"/>
<text x="913.6" y="565.0" font-size="14" font-weight="bold" text-anchor="middle">D2</text>
<text x="942.6" y="565.0" font-size="13.5">Lokasi (buildings, toilets)</text>
<g filter="url(#bayang)"><rect x="923.0" y="638.0" width="193.9" height="44" fill="url(#kotak)"/></g>
<path d="M1117.0,638.0 H923.0 V682.0 H1117.0" fill="none" stroke="#333333" stroke-width="1.5"/>
<line x1="969.0" y1="638.0" x2="969.0" y2="682.0" stroke="#333333" stroke-width="1.5"/>
<text x="946.0" y="665.0" font-size="14" font-weight="bold" text-anchor="middle">D3</text>
<text x="979.0" y="665.0" font-size="13.5">Laporan (reports)</text>
<g filter="url(#bayang)"><rect x="882.9" y="748.0" width="274.1" height="44" fill="url(#kotak)"/></g>
<path d="M1157.1,748.0 H882.9 V792.0 H1157.1" fill="none" stroke="#333333" stroke-width="1.5"/>
<line x1="928.9" y1="748.0" x2="928.9" y2="792.0" stroke="#333333" stroke-width="1.5"/>
<text x="905.9" y="775.0" font-size="14" font-weight="bold" text-anchor="middle">D6</text>
<text x="938.9" y="775.0" font-size="13.5">Log Aktivitas (activity_log)</text>
<g filter="url(#bayang)"><rect x="923.0" y="878.0" width="193.9" height="44" fill="url(#kotak)"/></g>
<path d="M1117.0,878.0 H923.0 V922.0 H1117.0" fill="none" stroke="#333333" stroke-width="1.5"/>
<line x1="969.0" y1="878.0" x2="969.0" y2="922.0" stroke="#333333" stroke-width="1.5"/>
<line x1="930.0" y1="878.0" x2="930.0" y2="922.0" stroke="#333333" stroke-width="1.5"/>
<text x="950.0" y="905.0" font-size="14" font-weight="bold" text-anchor="middle">D3</text>
<text x="979.0" y="905.0" font-size="13.5">Laporan (reports)</text>
<circle cx="1400" cy="440" r="58" fill="#FFFFFF" stroke="#333333" stroke-width="1.5" stroke-dasharray="7 5"/>
<text x="1400" y="428.9" font-size="12.5" text-anchor="middle" font-weight="bold">3.0</text>
<text x="1400" y="444.5" font-size="12.5" text-anchor="middle">Analisis</text>
<text x="1400" y="460.1" font-size="12.5" text-anchor="middle">Keluhan (AI)</text>
<text x="420.1" y="404.9" font-size="12.5" text-anchor="middle" stroke="#FFFFFF" stroke-width="5" stroke-linejoin="round" paint-order="stroke">kode QR lantai</text>
<text x="341.4" y="331.3" font-size="12.5" text-anchor="middle" stroke="#FFFFFF" stroke-width="5" stroke-linejoin="round" paint-order="stroke">pilihan toilet</text>
<text x="774.3" y="198.5" font-size="12.5" text-anchor="middle" stroke="#FFFFFF" stroke-width="5" stroke-linejoin="round" paint-order="stroke">daftar toilet aktif</text>
<text x="385.1" y="455.2" font-size="12.5" text-anchor="middle" stroke="#FFFFFF" stroke-width="5" stroke-linejoin="round" paint-order="stroke">foto dari kamera</text>
<text x="793.5" y="438.5" font-size="12.5" text-anchor="middle" stroke="#FFFFFF" stroke-width="5" stroke-linejoin="round" paint-order="stroke">foto kondisi</text>
<text x="519.8" y="544.5" font-size="12.5" text-anchor="middle" stroke="#FFFFFF" stroke-width="5" stroke-linejoin="round" paint-order="stroke">kunci foto (photo_key)</text>
<text x="381.5" y="651.8" font-size="12.5" text-anchor="middle" stroke="#FFFFFF" stroke-width="5" stroke-linejoin="round" paint-order="stroke">toilet terpilih, keluhan</text>
<text x="400.7" y="573.8" font-size="12.5" text-anchor="middle" stroke="#FFFFFF" stroke-width="5" stroke-linejoin="round" paint-order="stroke">ID laporan</text>
<text x="788.4" y="595.0" font-size="12.5" text-anchor="middle" stroke="#FFFFFF" stroke-width="5" stroke-linejoin="round" paint-order="stroke">toilet aktif?</text>
<text x="792.0" y="639.5" font-size="12.5" text-anchor="middle" stroke="#FFFFFF" stroke-width="5" stroke-linejoin="round" paint-order="stroke">cek laporan kembar</text>
<text x="792.0" y="689.5" font-size="12.5" text-anchor="middle" stroke="#FFFFFF" stroke-width="5" stroke-linejoin="round" paint-order="stroke">laporan baru (status = baru)</text>
<text x="790.8" y="743.7" font-size="12.5" text-anchor="middle" stroke="#FFFFFF" stroke-width="5" stroke-linejoin="round" paint-order="stroke">log laporan masuk</text>
<text x="1005.0" y="490.5" font-size="12.5" text-anchor="middle" stroke="#FFFFFF" stroke-width="5" stroke-linejoin="round" paint-order="stroke">ID laporan baru</text>
<text x="346.9" y="751.0" font-size="12.5" text-anchor="middle" stroke="#FFFFFF" stroke-width="5" stroke-linejoin="round" paint-order="stroke">ID laporan</text>
<text x="420.1" y="684.1" font-size="12.5" text-anchor="middle" stroke="#FFFFFF" stroke-width="5" stroke-linejoin="round" paint-order="stroke">status laporan</text>
<text x="792.5" y="890.5" font-size="12.5" text-anchor="middle" stroke="#FFFFFF" stroke-width="5" stroke-linejoin="round" paint-order="stroke">status, hasil AI, foto bukti</text>
</svg>